<svg width="28" height="28" viewBox="0 0 28 28" fill="none" xmlns="http://www.w3.org/2000/svg">
    <g clip-path="url(#clip0_18_380)">
        <path fill-rule="evenodd" clip-rule="evenodd"
            d="M9.7651 16.2283C9.68381 16.313 9.63843 16.4259 9.63843 16.5433C9.63843 16.6607 9.68381 16.7736 9.7651 16.8583C10.743 17.687 11.9833 18.1417 13.2651 18.1416C13.2651 18.5616 13.3234 19.005 13.3701 19.425C13.3715 19.4837 13.3849 19.5416 13.4094 19.595C13.434 19.6484 13.4692 19.6963 13.5129 19.7356C13.5566 19.7749 13.6078 19.8049 13.6635 19.8237C13.7192 19.8425 13.7782 19.8498 13.8368 19.845C13.9513 19.8361 14.0582 19.7843 14.1361 19.6999C14.214 19.6155 14.2571 19.5048 14.2568 19.39V18.13C14.6965 18.099 15.1311 18.0168 15.5518 17.885C15.945 17.8014 16.3169 17.6377 16.6441 17.4041C16.9714 17.1705 17.247 16.872 17.4539 16.5273C17.6608 16.1825 17.7944 15.7988 17.8465 15.4001C17.8986 15.0015 17.8681 14.5963 17.7568 14.21C17.6757 13.8511 17.4981 13.5212 17.2431 13.2559C16.9881 12.9907 16.6655 12.8001 16.3101 12.705C15.7034 12.5582 15.0763 12.5149 14.4551 12.5766V11.2933V10.2316C15.0872 10.2606 15.7083 10.407 16.2868 10.6633C16.3352 10.7102 16.3948 10.7439 16.4599 10.7614C16.5249 10.7788 16.5934 10.7794 16.6588 10.763C16.7242 10.7467 16.7843 10.714 16.8335 10.6679C16.8827 10.6219 16.9194 10.5641 16.9401 10.5C16.9644 10.4549 16.9794 10.4054 16.9843 10.3544C16.9892 10.3035 16.9839 10.2521 16.9687 10.2032C16.9535 10.1543 16.9287 10.1089 16.8957 10.0697C16.8628 10.0306 16.8223 9.99833 16.7768 9.97497C16.093 9.6238 15.3486 9.40603 14.5834 9.3333V6.99997C14.5935 6.89829 14.5639 6.79666 14.5009 6.71624C14.4379 6.63583 14.3462 6.58283 14.2451 6.5683C14.1423 6.56139 14.0406 6.59362 13.9605 6.65854C13.8805 6.72346 13.8279 6.81625 13.8134 6.9183C13.6734 7.71164 13.5801 8.51664 13.4634 9.30997C13.0347 9.32493 12.6086 9.38357 12.1918 9.48497C11.8764 9.53845 11.5755 9.65618 11.3076 9.83086C11.0397 10.0055 10.8105 10.2334 10.6344 10.5004C10.4582 10.7673 10.3388 11.0676 10.2836 11.3827C10.2284 11.6977 10.2386 12.0207 10.3134 12.3316C10.3544 12.6946 10.4949 13.0392 10.7193 13.3274C10.9437 13.6156 11.2433 13.8362 11.5851 13.965C12.064 14.1343 12.571 14.2096 13.0784 14.1866V15.085C13.0784 15.785 13.1951 16.4733 13.2418 17.1616C12.2152 17.2197 11.2016 16.9094 10.3834 16.2866C10.3069 16.2004 10.2005 16.1464 10.0858 16.1356C9.97099 16.1247 9.85638 16.1579 9.7651 16.2283ZM11.6668 12.005C11.5884 11.688 11.6373 11.3529 11.803 11.0716C11.9688 10.7902 12.2382 10.585 12.5534 10.5C12.7951 10.4119 13.0454 10.3493 13.3001 10.3133C13.3001 10.6283 13.1951 10.9316 13.1601 11.2583C13.1251 11.585 13.1601 12.2033 13.0901 12.6816C12.4134 12.6933 11.7834 12.705 11.6668 12.005ZM14.7818 14C15.1149 13.9584 15.4519 13.9584 15.7851 14C15.9417 14.0044 16.0931 14.0573 16.2185 14.1513C16.3438 14.2453 16.437 14.3759 16.4851 14.525C16.9051 15.8666 15.7618 16.6133 14.4434 16.8583C14.4434 16.205 14.4434 15.5633 14.5134 14.91V13.9416L14.7818 14Z"
            fill="white" />
        <path fill-rule="evenodd" clip-rule="evenodd"
            d="M25.8067 14.1049C25.4567 14.1049 24.955 14.5016 24.5 15.5049C24.4762 15.5507 24.4618 15.6008 24.4577 15.6523C24.4536 15.7037 24.4599 15.7555 24.4763 15.8045C24.4926 15.8535 24.5186 15.8987 24.5527 15.9374C24.5869 15.9761 24.6285 16.0076 24.675 16.0299C24.7695 16.074 24.8776 16.0792 24.9758 16.0443C25.0741 16.0093 25.1546 15.9371 25.2 15.8432C25.445 15.3649 25.83 15.2016 25.8767 15.0266C25.9467 15.1629 25.9977 15.3081 26.0284 15.4582C26.2518 16.9198 26.0068 18.4145 25.3284 19.7282C24.2601 21.8673 22.6155 23.6655 20.58 24.9199C18.5115 26.1101 16.152 26.7 13.7667 26.6232C12.0353 26.586 10.3399 26.1211 8.83171 25.2699C7.35447 24.4492 5.98649 23.4458 4.76004 22.2832C4.80923 22.2198 4.83593 22.1418 4.83593 22.0616C4.83593 21.9813 4.80923 21.9033 4.76004 21.8399C4.69049 21.7626 4.59471 21.7138 4.49126 21.703C4.38781 21.6922 4.28404 21.7202 4.20004 21.7816C3.80337 22.0616 3.39504 22.3182 2.96337 22.5632C2.53171 22.8082 2.21671 22.9599 1.79671 23.1349C1.79671 22.7266 1.87837 22.3066 1.90171 22.0266C1.91743 21.0122 1.85503 19.998 1.71504 18.9932C1.60324 18.4065 1.42312 17.8348 1.17837 17.2899C1.88394 17.548 2.60475 17.7623 3.33671 17.9316C3.90837 18.0599 4.50337 18.1882 5.08671 18.2932C5.67004 18.3982 6.25337 18.4566 6.81337 18.5616L7.59504 18.6432L6.49837 19.9382C6.42777 20.012 6.38837 20.1103 6.38837 20.2124C6.38837 20.3145 6.42777 20.4127 6.49837 20.4866C6.56734 20.5435 6.65396 20.5746 6.74337 20.5746C6.83278 20.5746 6.9194 20.5435 6.98837 20.4866C6.98837 20.4866 6.98837 20.5566 6.98837 20.5799C8.26343 22.2465 10.1227 23.3679 12.1917 23.7182C13.2138 23.916 14.2593 23.9631 15.295 23.8582C16.33 23.7531 17.3419 23.4853 18.2934 23.0649C19.5871 22.4566 20.77 21.6364 21.7934 20.6382C22.7987 19.6157 23.6267 18.4328 24.2434 17.1382C24.2744 17.0493 24.2728 16.9523 24.2388 16.8644C24.2049 16.7766 24.1408 16.7037 24.058 16.6588C23.9752 16.6139 23.8792 16.5999 23.787 16.6194C23.6949 16.6388 23.6126 16.6904 23.555 16.7649C22.9139 17.9098 22.0948 18.9455 21.1284 19.8332C20.1299 20.6574 19.0026 21.3117 17.7917 21.7699C16.9623 22.1096 16.0913 22.3372 15.2017 22.4466C14.3033 22.5633 13.3935 22.5633 12.495 22.4466C10.6772 22.2862 8.9843 21.4544 7.74671 20.1132H7.66504L8.73837 19.2266L9.17004 18.6666C9.26086 18.5498 9.31017 18.4061 9.31017 18.2582C9.31017 18.1103 9.26086 17.9666 9.17004 17.8499C8.96296 17.5953 8.68152 17.4118 8.36504 17.3249C7.93378 17.1938 7.49302 17.0963 7.04671 17.0332C6.46337 16.9282 5.88004 16.8349 5.14504 16.7649C4.21171 16.6832 3.25504 16.6599 2.35671 16.5316C1.97171 16.4732 1.58671 16.4032 1.24837 16.3216C0.851706 15.8666 -0.13996 16.4149 0.268373 17.2782C0.452093 17.8518 0.550368 18.4493 0.56004 19.0516C0.604681 20.0053 0.573472 20.9611 0.466706 21.9099C0.390846 22.4587 0.359633 23.0127 0.373373 23.5666C0.387113 23.9195 0.495948 24.2621 0.688373 24.5582C0.802818 24.7006 0.963496 24.7983 1.14251 24.8346C1.32153 24.8708 1.50758 24.8432 1.66837 24.7566L2.33337 24.3482C2.76662 24.0607 3.18339 23.7491 3.58171 23.4149C3.78004 23.2632 3.96671 23.0882 4.15337 22.9132C5.65692 24.4912 7.40627 25.815 9.33337 26.8332C10.7202 27.5316 12.2389 27.9292 13.79 27.9999C16.4435 28.1535 19.0848 27.5378 21.3967 26.2266C23.6246 24.7864 25.3779 22.7206 26.4367 20.2882C27.2479 18.5553 27.3729 16.5796 26.7867 14.7582C26.7146 14.5589 26.5806 14.3879 26.4042 14.2703C26.2278 14.1527 26.0184 14.0948 25.8067 14.1049Z"
            fill="white" />
        <path fill-rule="evenodd" clip-rule="evenodd"
            d="M27.6851 10.675C27.4918 10.1034 27.3894 9.50502 27.3818 8.90168C27.3648 7.96203 27.4154 7.02238 27.5334 6.09001C27.6136 5.54158 27.6487 4.98751 27.6384 4.43334C27.6098 4.10147 27.5018 3.78135 27.3234 3.50001C27.209 3.35766 27.0483 3.25989 26.8693 3.22366C26.6903 3.18743 26.5042 3.21503 26.3434 3.30168L25.6668 3.65168C25.2335 3.93919 24.8167 4.25079 24.4184 4.58501C24.2318 4.73668 24.0451 4.91168 23.8584 5.07501C22.3685 3.5048 20.6351 2.18508 18.7251 1.16668C17.3342 0.468025 15.8117 0.0704896 14.2568 1.01477e-05C11.6024 -0.1481 8.96152 0.47161 6.65009 1.78501C4.42857 3.23245 2.67713 5.29606 1.61009 7.72334C0.801599 9.45745 0.680695 11.4336 1.27176 13.2533C1.34111 13.4419 1.46671 13.6045 1.63156 13.7193C1.79642 13.8341 1.99256 13.8954 2.19343 13.895C2.54343 13.895 3.04509 13.4983 3.51176 12.495C3.5559 12.4005 3.56106 12.2925 3.52613 12.1942C3.49119 12.096 3.41897 12.0154 3.32509 11.97C3.27916 11.9484 3.2294 11.9361 3.17869 11.9338C3.12797 11.9315 3.0773 11.9392 3.02959 11.9565C2.98188 11.9739 2.93807 12.0005 2.90069 12.0349C2.8633 12.0692 2.83308 12.1106 2.81176 12.1567C2.56676 12.635 2.17009 12.7983 2.13509 12.9733C2.06938 12.8363 2.0223 12.6912 1.99509 12.5417C1.75826 11.0801 2.00399 9.58114 2.69509 8.27168C3.75519 6.13133 5.39157 4.32929 7.42009 3.06834C9.48864 1.87809 11.8481 1.28822 14.2334 1.36501C15.9649 1.40224 17.6602 1.86715 19.1684 2.71834C20.642 3.5391 22.0062 4.54258 23.2284 5.70501C23.1772 5.76755 23.1493 5.84587 23.1493 5.92668C23.1493 6.00749 23.1772 6.08581 23.2284 6.14834C23.2944 6.22728 23.3885 6.27749 23.4908 6.28837C23.5931 6.29926 23.6956 6.26996 23.7768 6.20668C24.1851 5.92668 24.5818 5.67001 25.0134 5.42501C25.4451 5.18001 25.7718 5.02834 26.1801 4.85334C26.1801 5.26168 26.0868 5.68168 26.0751 5.96168C26.0477 6.97632 26.1101 7.99139 26.2618 8.99501C26.3707 9.59818 26.5631 10.1832 26.8334 10.7333C26.1288 10.4756 25.4077 10.2651 24.6751 10.1033C24.1034 9.96334 23.5084 9.82334 22.9134 9.73001C22.3184 9.63668 21.7468 9.56668 21.1984 9.46168L20.3701 9.33334L21.4668 8.03834C21.5031 8.00252 21.5319 7.95984 21.5516 7.91277C21.5713 7.86571 21.5815 7.8152 21.5815 7.76418C21.5815 7.71316 21.5713 7.66265 21.5516 7.61558C21.5319 7.56851 21.5031 7.52583 21.4668 7.49001C21.3996 7.43401 21.315 7.40334 21.2276 7.40334C21.1402 7.40334 21.0555 7.43401 20.9884 7.49001C20.9884 7.49001 20.9884 7.42001 20.9884 7.39668C19.7066 5.73195 17.8446 4.61139 15.7734 4.25834C14.7553 4.06024 13.7136 4.01307 12.6818 4.11834C11.6428 4.22211 10.6269 4.48987 9.67176 4.91168C8.37573 5.51591 7.19213 6.33654 6.17176 7.33834C5.1628 8.36043 4.33089 9.54324 3.71009 10.8383C3.66058 10.9312 3.64998 11.0399 3.68061 11.1405C3.71124 11.2411 3.7806 11.3255 3.87343 11.375C3.96625 11.4245 4.07494 11.4351 4.17559 11.4045C4.27623 11.3739 4.36058 11.3045 4.41009 11.2117C5.06534 10.0873 5.90092 9.07834 6.88343 8.22501C7.87767 7.40093 9.0011 6.74658 10.2084 6.28834C11.0498 5.94801 11.9324 5.72049 12.8334 5.61168C13.7319 5.4949 14.6416 5.4949 15.5401 5.61168C17.357 5.77527 19.0488 6.60661 20.2884 7.94501C20.2884 7.94501 20.2884 7.94501 20.3584 7.94501L19.2851 8.83168L18.8301 9.33334C18.7307 9.44345 18.6709 9.58365 18.6603 9.73163C18.6498 9.87962 18.689 10.0269 18.7718 10.15C18.9814 10.4072 19.2674 10.5911 19.5884 10.675C20.0161 10.8047 20.4529 10.9022 20.8951 10.9667C21.4784 11.0717 22.1318 11.165 22.7968 11.235C23.7301 11.3167 24.6984 11.34 25.5968 11.4683C25.9701 11.5267 26.3551 11.5967 26.7051 11.6783C27.0784 11.9 28.0818 11.34 27.6851 10.675Z"
            fill="white" />
    </g>
    <defs>
        <clipPath id="clip0_18_380">
            <rect width="28" height="28" fill="white" />
        </clipPath>
    </defs>
</svg>