<svg width="256" height="256" viewBox="0 0 256 256" fill="none" xmlns="http://www.w3.org/2000/svg">
<path d="M156.854 52.0005L179.823 51.997C186.781 51.9925 193.932 51.346 200.562 53.903C207.286 56.496 213.706 62.224 216.635 68.858C204.494 78.184 192.099 87.199 179.82 96.341L141.192 125.367C131.46 132.78 125.853 133.581 115.506 125.882L109.06 121.058L44.3301 72.6545C42.5816 71.355 40.8581 69.6755 38.834 68.858C46.3723 53.3795 59.1283 51.997 73.8678 51.9975L156.854 52.0005Z" fill="url(#paint0_linear_1_684)"/>
<path d="M220.052 85.1318L220.193 85.1798C219.87 97.4848 220.049 109.827 220.051 122.14L220.07 172.202C220.178 189.873 209.25 203.344 191.016 203.379L74.4634 203.381C69.5929 203.383 63.5844 203.77 58.8639 202.911C48.39 201.006 39.8782 192.65 37.2609 182.436C35.714 176.399 36.2629 169.278 36.2635 163.021L36.264 141.16L36.2589 91.8833C36.2437 89.6243 36.094 87.3893 36.264 85.1318C38.9337 87.6923 42.2243 89.7483 45.1759 91.9848L100.086 133.231C112.009 142.138 121.648 152.496 138.193 145.703C141.134 144.495 143.625 142.486 146.146 140.594L212.528 90.4323C214.916 88.6308 217.348 86.4258 220.052 85.1318Z" fill="url(#paint1_linear_1_684)"/>
<defs>
<linearGradient id="paint0_linear_1_684" x1="216.53" y1="89.15" x2="39.7235" y2="92.6224" gradientUnits="userSpaceOnUse">
<stop stop-color="#6262F7"/>
<stop offset="1" stop-color="#4CB9F3"/>
</linearGradient>
<linearGradient id="paint1_linear_1_684" x1="219.889" y1="144.094" x2="36.4235" y2="144.529" gradientUnits="userSpaceOnUse">
<stop stop-color="#615DF7"/>
<stop offset="1" stop-color="#4DC0F5"/>
</linearGradient>
</defs>
</svg>
