<svg width="22" height="22" viewBox="0 0 22 22" fill="none" xmlns="http://www.w3.org/2000/svg">
<path fill-rule="evenodd" clip-rule="evenodd" d="M17.6871 12.4057C17.4499 12.7611 17.0926 13.0192 16.6807 13.1329C16.2688 13.2466 15.8297 13.2082 15.4438 13.0247C13.7205 12.2162 12.0043 11.3109 12.0043 11.3109C11.4286 12.3319 10.7567 13.8562 10.301 14.9385C9.97667 15.7085 9.19143 16.1985 8.4 15.9319C7.84669 15.7463 7.32086 15.4872 6.83667 15.1614C6.14381 14.6981 6.04952 13.7795 6.49047 13.0724C7.42809 11.569 8.61238 9.79617 9.78286 8.2914C10.3571 7.55331 11.3952 7.40474 12.1976 7.88474C13.2424 8.50997 14.6548 9.32569 15.6167 9.76426C16.3857 8.70283 17.6238 6.69236 18.2848 5.60236C18.5776 5.11997 19.0533 4.74093 19.5962 4.89569C19.8976 4.9814 20.2076 5.12569 20.4619 5.29855C20.8962 5.59378 20.9162 6.15855 20.7267 6.64807C20.3043 7.73759 19.3614 9.89093 17.6871 12.4057Z" stroke="white" stroke-linecap="round" stroke-linejoin="round"/>
<path d="M1 1C1 8.76429 1.14333 16.3852 1.20762 19.4048C1.21469 19.7706 1.36316 20.1194 1.62187 20.3781C1.88058 20.6368 2.22943 20.7853 2.59524 20.7924C5.61476 20.8567 13.2357 21 21 21" stroke="white" stroke-width="2" stroke-linecap="round" stroke-linejoin="round"/>
</svg>
