<svg width="25" height="25" viewBox="0 0 25 25" fill="none" xmlns="http://www.w3.org/2000/svg">
<g filter="url(#filter0_d_88_415)">
<path fill-rule="evenodd" clip-rule="evenodd" d="M19.187 13.9054C18.9498 14.2608 18.5925 14.519 18.1806 14.6326C17.7687 14.7463 17.3296 14.7079 16.9437 14.5245C15.2204 13.7159 13.5042 12.8107 13.5042 12.8107C12.9284 13.8316 12.2565 15.3559 11.8008 16.4383C11.4765 17.2083 10.6913 17.6983 9.89988 17.4316C9.34657 17.2461 8.82074 16.9869 8.33654 16.6612C7.64369 16.1978 7.5494 15.2793 7.99035 14.5721C8.92797 13.0688 10.1123 11.2959 11.2827 9.79116C11.857 9.05306 12.8951 8.90449 13.6975 9.38449C14.7423 10.0097 16.1546 10.8254 17.1165 11.264C17.8856 10.2026 19.1237 8.19211 19.7846 7.10211C20.0775 6.61973 20.5532 6.24068 21.0961 6.39544C21.3975 6.48116 21.7075 6.62545 21.9618 6.7983C22.3961 7.09354 22.4161 7.6583 22.2265 8.14783C21.8042 9.23735 20.8613 11.3907 19.187 13.9054Z" stroke="black" stroke-width="3" stroke-linecap="round" stroke-linejoin="round" shape-rendering="crispEdges"/>
</g>
<g filter="url(#filter1_d_88_415)">
<path fill-rule="evenodd" clip-rule="evenodd" d="M19.187 13.9054C18.9498 14.2608 18.5925 14.519 18.1806 14.6326C17.7687 14.7463 17.3296 14.7079 16.9437 14.5245C15.2204 13.7159 13.5042 12.8107 13.5042 12.8107C12.9284 13.8316 12.2565 15.3559 11.8008 16.4383C11.4765 17.2083 10.6913 17.6983 9.89988 17.4316C9.34657 17.2461 8.82074 16.9869 8.33654 16.6612C7.64369 16.1978 7.5494 15.2793 7.99035 14.5721C8.92797 13.0688 10.1123 11.2959 11.2827 9.79116C11.857 9.05306 12.8951 8.90449 13.6975 9.38449C14.7423 10.0097 16.1546 10.8254 17.1165 11.264C17.8856 10.2026 19.1237 8.19211 19.7846 7.10211C20.0775 6.61973 20.5532 6.24068 21.0961 6.39544C21.3975 6.48116 21.7075 6.62545 21.9618 6.7983C22.3961 7.09354 22.4161 7.6583 22.2265 8.14783C21.8042 9.23735 20.8613 11.3907 19.187 13.9054Z" stroke="white" stroke-linecap="round" stroke-linejoin="round" shape-rendering="crispEdges"/>
</g>
<path d="M2.5 2.5C2.5 10.2643 2.64333 17.8852 2.70762 20.9048C2.71469 21.2706 2.86316 21.6194 3.12187 21.8781C3.38058 22.1368 3.72943 22.2853 4.09524 22.2924C7.11476 22.3567 14.7357 22.5 22.5 22.5" stroke="black" stroke-width="5" stroke-linecap="round" stroke-linejoin="round"/>
<path d="M2.5 2.5C2.5 10.2643 2.64333 17.8852 2.70762 20.9048C2.71469 21.2706 2.86316 21.6194 3.12187 21.8781C3.38058 22.1368 3.72943 22.2853 4.09524 22.2924C7.11476 22.3567 14.7357 22.5 22.5 22.5" stroke="white" stroke-width="2" stroke-linecap="round" stroke-linejoin="round"/>
<defs>
<filter id="filter0_d_88_415" x="6.22559" y="4.85449" width="17.6104" height="14.1567" filterUnits="userSpaceOnUse" color-interpolation-filters="sRGB">
<feFlood flood-opacity="0" result="BackgroundImageFix"/>
<feColorMatrix in="SourceAlpha" type="matrix" values="0 0 0 0 0 0 0 0 0 0 0 0 0 0 0 0 0 0 127 0" result="hardAlpha"/>
<feOffset/>
<feComposite in2="hardAlpha" operator="out"/>
<feColorMatrix type="matrix" values="0 0 0 0 0 0 0 0 0 0 0 0 0 0 0 0 0 0 1 0"/>
<feBlend mode="normal" in2="BackgroundImageFix" result="effect1_dropShadow_88_415"/>
<feBlend mode="normal" in="SourceGraphic" in2="effect1_dropShadow_88_415" result="shape"/>
</filter>
<filter id="filter1_d_88_415" x="7.22339" y="5.8584" width="15.6157" height="12.1484" filterUnits="userSpaceOnUse" color-interpolation-filters="sRGB">
<feFlood flood-opacity="0" result="BackgroundImageFix"/>
<feColorMatrix in="SourceAlpha" type="matrix" values="0 0 0 0 0 0 0 0 0 0 0 0 0 0 0 0 0 0 127 0" result="hardAlpha"/>
<feOffset/>
<feComposite in2="hardAlpha" operator="out"/>
<feColorMatrix type="matrix" values="0 0 0 0 0 0 0 0 0 0 0 0 0 0 0 0 0 0 1 0"/>
<feBlend mode="normal" in2="BackgroundImageFix" result="effect1_dropShadow_88_415"/>
<feBlend mode="normal" in="SourceGraphic" in2="effect1_dropShadow_88_415" result="shape"/>
</filter>
</defs>
</svg>
