<svg width="27" height="28" viewBox="0 0 27 28" fill="none" xmlns="http://www.w3.org/2000/svg">
    <path fill-rule="evenodd" clip-rule="evenodd"
        d="M23.1591 21.0816C22.8689 21.0928 22.5801 21.1279 22.2957 21.1866C21.2924 21.3849 20.3124 21.7933 19.2857 21.9099C17.9167 22.0371 16.54 22.0605 15.1674 21.9799C14.1898 21.9393 13.2157 21.838 12.2507 21.6766C12.762 21.415 13.2302 21.0766 13.6391 20.6733C13.9996 20.3389 14.2221 19.882 14.2631 19.3921C14.3042 18.9021 14.1606 18.4145 13.8607 18.0249C13.55 17.6089 13.1093 17.3083 12.6084 17.171C12.1076 17.0336 11.5753 17.0673 11.0957 17.2666C9.30604 17.9205 7.63516 18.8624 6.14907 20.0549C5.79543 20.2613 5.39177 20.3663 4.9824 20.3583C4.26001 20.4672 3.56391 20.7084 2.92907 21.0699C1.86892 21.6779 0.905517 22.4407 0.0707355 23.3333C0.0182571 23.4074 -0.00630845 23.4977 0.0013829 23.5883C0.00907424 23.6788 0.048527 23.7637 0.112764 23.8279C0.177002 23.8921 0.261886 23.9316 0.352405 23.9393C0.442924 23.947 0.533247 23.9224 0.607402 23.8699C1.39878 23.0554 2.30708 22.3634 3.3024 21.8166C3.98473 21.4569 4.73711 21.2499 5.5074 21.2099C5.92333 21.1773 6.32443 21.0409 6.67407 20.8133C7.89996 19.8822 9.23137 19.0991 10.6407 18.4799C11.5741 18.1416 12.4607 17.9083 12.8574 18.5733C12.9342 18.683 12.9882 18.807 13.0162 18.9379C13.0443 19.0689 13.0459 19.2041 13.0209 19.3357C12.9959 19.4672 12.9448 19.5925 12.8706 19.704C12.7965 19.8155 12.7007 19.911 12.5891 19.9849C11.9514 20.4315 11.276 20.8219 10.5707 21.1516C10.445 21.2164 10.3368 21.3108 10.2555 21.4267C10.1743 21.5425 10.1223 21.6763 10.1041 21.8166C10.1041 22.0383 10.1624 22.4116 10.7341 22.5983C12.1456 22.9882 13.5987 23.2075 15.0624 23.2516C16.5008 23.3439 17.9444 23.3205 19.3791 23.1816C20.4407 23.0533 21.4557 22.6333 22.4941 22.4233C22.7209 22.3751 22.951 22.3439 23.1824 22.3299C23.3574 22.3299 23.4741 22.3299 23.5324 22.3883C23.5948 22.5456 23.5948 22.7209 23.5324 22.8783C23.4157 23.7649 22.5057 24.5233 21.4091 25.2116C19.8549 26.1267 18.1403 26.7365 16.3574 27.0083C14.9457 27.1133 12.8574 27.2299 10.7807 27.1716C9.58073 27.1373 8.38428 27.0242 7.19907 26.8333C7.15407 26.8222 7.10728 26.8206 7.06161 26.8283C7.01593 26.8361 6.97235 26.8532 6.93355 26.8785C6.89475 26.9039 6.86156 26.9369 6.83605 26.9756C6.81054 27.0143 6.79325 27.0578 6.78524 27.1034C6.77723 27.149 6.77869 27.1958 6.78951 27.2409C6.80033 27.2859 6.82029 27.3283 6.84815 27.3653C6.87601 27.4023 6.91118 27.4332 6.95147 27.4561C6.99177 27.479 7.03633 27.4933 7.0824 27.4983C8.32868 27.7135 9.58729 27.8499 10.8507 27.9066C12.9624 28.0233 15.0857 27.9766 16.5091 27.9066C18.4603 27.6838 20.3501 27.0856 22.0741 26.1449C22.7317 25.856 23.3198 25.4295 23.7987 24.8942C24.2777 24.3589 24.6364 23.7272 24.8507 23.0416C24.9491 22.5555 24.8572 22.0503 24.5941 21.6299C24.4246 21.42 24.2025 21.2587 23.9505 21.1624C23.6984 21.0661 23.4254 21.0382 23.1591 21.0816Z"
        fill="white" />
    <path fill-rule="evenodd" clip-rule="evenodd"
        d="M26.4957 14.1516C25.9715 12.8854 25.1748 11.7502 24.1624 10.8266C22.9257 9.60157 21.5957 8.56324 20.9424 6.99991C20.9889 6.97852 21.0305 6.94781 21.0646 6.90968C21.0987 6.87155 21.1246 6.82681 21.1407 6.77824C21.1696 6.69735 21.1677 6.60867 21.1355 6.52907C21.1032 6.44947 21.0428 6.38452 20.9657 6.34657C21.8849 5.70767 22.6048 4.82195 23.0424 3.79157C23.2957 3.30327 23.4039 2.75266 23.3543 2.20482C23.3047 1.65697 23.0993 1.13477 22.7624 0.699908C22.6702 0.601925 22.5532 0.530684 22.4238 0.493719C22.2944 0.456753 22.1575 0.455436 22.0274 0.489908C21.5435 0.651821 21.0842 0.879509 20.6624 1.16657C20.4976 1.27084 20.3161 1.34584 20.1257 1.38824C19.9741 1.38824 19.9274 1.15491 19.8224 1.01491C19.6616 0.714627 19.4341 0.455204 19.1574 0.256575C18.9096 0.0704762 18.6033 -0.0205912 18.2941 -9.17937e-05C17.987 0.0312492 17.6974 0.15769 17.4657 0.361575C17.2256 0.610962 17.007 0.880259 16.8124 1.16657C16.6724 1.35324 16.5674 1.58657 16.3224 1.57491C16.1122 1.5521 15.9114 1.47578 15.7391 1.35324C15.1143 0.886622 14.4369 0.495047 13.7207 0.186575C12.5541 -0.105092 11.8541 0.256575 11.5274 0.816575C11.3414 1.15008 11.2438 1.52557 11.2438 1.90741C11.2438 2.28924 11.3414 2.66474 11.5274 2.99824C11.6583 3.20222 11.8338 3.37377 12.0407 3.49991C12.5857 3.80384 13.0749 4.19837 13.4874 4.66657C13.7692 5.04376 13.9207 5.50239 13.9191 5.97324C13.4197 5.54052 12.8851 5.15028 12.3207 4.80657C12.0653 4.66518 11.7954 4.55175 11.5157 4.46824C11.2353 4.37593 10.9459 4.31336 10.6524 4.28157C9.98206 4.20045 9.30439 4.20045 8.63406 4.28157C8.53195 4.28157 8.43402 4.32214 8.36182 4.39434C8.28962 4.46654 8.24906 4.56447 8.24906 4.66657C8.24906 4.76868 8.28962 4.86661 8.36182 4.93881C8.43402 5.01101 8.53195 5.05157 8.63406 5.05157C9.15124 5.11473 9.66239 5.22008 10.1624 5.36657C10.6291 5.48324 11.0491 5.64657 11.4924 5.79824L12.5191 6.13657C12.1557 6.24009 11.8068 6.38905 11.4807 6.57991C11.0961 6.80905 10.7431 7.08752 10.4307 7.40824C9.97573 7.86324 9.60239 8.37657 9.17073 8.86657C9.10088 8.93844 9.06181 9.0347 9.06181 9.13491C9.06181 9.23512 9.10088 9.33138 9.17073 9.40324C9.20554 9.43923 9.24723 9.46785 9.29333 9.48739C9.33943 9.50694 9.38899 9.51701 9.43906 9.51701C9.48913 9.51701 9.53869 9.50694 9.58479 9.48739C9.63088 9.46785 9.67258 9.43923 9.70739 9.40324C10.3841 8.90158 11.0724 8.43491 11.7374 7.94491C11.9591 7.79324 12.1574 7.64157 12.3674 7.47824C12.5774 7.31491 12.7641 7.15157 12.9741 7.01157C13.1364 6.91684 13.3039 6.83115 13.4757 6.75491C13.5144 6.79164 13.5631 6.81601 13.6157 6.82491C13.1675 8.10048 12.3908 9.2353 11.3641 10.1149C10.8857 10.5816 10.4074 11.0249 9.98739 11.4916C9.67759 11.828 9.39293 12.1867 9.13572 12.5649C8.41068 13.5824 8.05654 14.8178 8.13239 16.0649C8.13076 16.1098 8.13839 16.1545 8.15482 16.1963C8.17124 16.2381 8.19611 16.276 8.22785 16.3078C8.2596 16.3395 8.29756 16.3644 8.33934 16.3808C8.38113 16.3972 8.42586 16.4049 8.47072 16.4032C8.56046 16.4032 8.64651 16.3676 8.70996 16.3041C8.77341 16.2407 8.80906 16.1546 8.80906 16.0649C8.97797 14.6364 9.69799 13.3303 10.8157 12.4249C11.3524 11.8882 11.9007 11.3632 12.4257 10.7916C12.9753 10.1888 13.4458 9.51841 13.8257 8.79657C14.1267 8.23245 14.3429 7.62706 14.4674 6.99991H16.8007C17.5591 6.99991 18.0491 6.87157 18.6791 6.88324C19.1877 6.88567 19.6952 6.93252 20.1957 7.02324C20.7884 8.81584 21.8474 10.4184 23.2641 11.6666C24.1227 12.5089 24.8257 13.4963 25.3407 14.5832C25.8289 15.7636 25.9705 17.0586 25.7491 18.3166C25.7149 18.5161 25.6602 18.7116 25.5857 18.8999C25.4472 19.2234 25.2834 19.5355 25.0957 19.8332C25.0369 19.9168 25.0137 20.0203 25.0312 20.1209C25.0487 20.2215 25.1055 20.3111 25.1891 20.3699C25.2726 20.4287 25.3761 20.4519 25.4767 20.4344C25.5774 20.4169 25.6669 20.3601 25.7257 20.2766C25.9578 19.967 26.1646 19.6393 26.3441 19.2966C26.4732 19.0519 26.5749 18.7936 26.6474 18.5266C27.0454 17.087 26.9924 15.5601 26.4957 14.1516ZM17.9791 5.55324C17.3845 5.53114 16.7894 5.57812 16.2057 5.69324C15.6924 5.77491 15.1791 5.91491 14.6307 6.05491C14.6893 5.40895 14.5246 4.76244 14.1641 4.22324C13.7962 3.69981 13.3426 3.24227 12.8224 2.86991C12.6357 2.70657 12.4607 2.61324 12.4141 2.51991C12.321 2.33956 12.2724 2.13954 12.2724 1.93657C12.2724 1.73361 12.321 1.53359 12.4141 1.35324C12.5774 1.11991 12.9041 1.10824 13.4057 1.27157C13.7273 1.40152 14.0235 1.58714 14.2807 1.81991C14.6419 2.11962 15.0328 2.38154 15.4474 2.60157C15.7059 2.73188 15.9872 2.81111 16.2757 2.83491C16.5874 2.85793 16.8982 2.78023 17.1624 2.61324C17.5166 2.35612 17.8243 2.04048 18.0724 1.67991C18.2007 1.51657 18.2824 1.31824 18.4691 1.29491C18.6557 1.27157 18.6674 1.46991 18.7607 1.59824C18.9248 1.87573 19.1337 2.1241 19.3791 2.33324C19.6119 2.49772 19.8875 2.59095 20.1724 2.60157C20.4975 2.56712 20.8096 2.45509 21.0824 2.27491C21.3741 2.11157 21.8057 1.70324 22.0624 1.57491C22.266 1.95215 22.3617 2.37819 22.3391 2.80627C22.3164 3.23434 22.1763 3.64791 21.9341 4.00157C21.5235 4.81741 20.8826 5.49483 20.0907 5.94991C19.4117 5.70871 18.6993 5.57488 17.9791 5.55324Z"
        fill="white" />
    <path fill-rule="evenodd" clip-rule="evenodd"
        d="M18.6557 16.4383C18.0708 16.7142 17.4174 16.8116 16.7774 16.7183C16.5936 16.6782 16.4193 16.6029 16.2641 16.4966C16.0883 16.3719 15.9278 16.227 15.7857 16.065C15.7161 15.9892 15.6192 15.9441 15.5164 15.9397C15.4136 15.9354 15.3132 15.972 15.2374 16.0416C15.1616 16.1113 15.1165 16.2081 15.1122 16.311C15.1078 16.4138 15.1444 16.5142 15.2141 16.59C15.4169 16.8376 15.6479 17.0608 15.9024 17.255C16.0978 17.4012 16.3197 17.5081 16.5557 17.57C16.75 17.6248 16.9494 17.66 17.1507 17.675C17.1393 17.7758 17.1393 17.8775 17.1507 17.9783C17.1443 18.0754 17.1443 18.1729 17.1507 18.27C17.2091 18.5266 17.2907 18.725 17.3491 18.9816C17.3459 19.0316 17.3529 19.0817 17.3695 19.129C17.3861 19.1762 17.412 19.2197 17.4458 19.2567C17.4795 19.2937 17.5204 19.3235 17.5659 19.3444C17.6114 19.3653 17.6607 19.3768 17.7107 19.3783C17.7617 19.3831 17.813 19.3774 17.8616 19.3616C17.9103 19.3457 17.9551 19.32 17.9934 19.2861C18.0317 19.2522 18.0626 19.2108 18.0842 19.1644C18.1058 19.1181 18.1177 19.0678 18.1191 19.0166C18.2198 18.7864 18.3017 18.5484 18.3641 18.305C18.3753 18.2003 18.3753 18.0947 18.3641 17.99C18.3756 17.8853 18.3756 17.7796 18.3641 17.675C18.366 17.6361 18.366 17.5972 18.3641 17.5583C18.7691 17.4793 19.1615 17.3459 19.5307 17.1616C19.9362 17.0015 20.2739 16.7061 20.4865 16.3255C20.6991 15.9449 20.7736 15.5025 20.6974 15.0733C20.6529 14.8192 20.5466 14.5799 20.3879 14.3765C20.2293 14.173 20.023 14.0117 19.7874 13.9066C19.091 13.6843 18.3561 13.6088 17.6291 13.685C17.3733 13.7161 17.1148 13.7161 16.8591 13.685C16.7857 13.674 16.7159 13.6462 16.6552 13.6037C16.5945 13.5612 16.5444 13.5051 16.5091 13.44C16.2407 12.9033 16.5791 12.5416 17.0574 12.3316C17.6806 12.073 18.3653 12.0001 19.0291 12.1216C19.072 12.1341 19.1169 12.1379 19.1613 12.1329C19.2057 12.1279 19.2486 12.1142 19.2877 12.0925C19.3267 12.0708 19.3611 12.0416 19.3888 12.0065C19.4165 11.9715 19.437 11.9313 19.4491 11.8883C19.4711 11.8017 19.4592 11.71 19.4158 11.6319C19.3725 11.5539 19.3009 11.4953 19.2157 11.4683C18.8515 11.3649 18.4744 11.3138 18.0957 11.3166C18.0957 11.3166 18.0957 11.235 18.0957 11.1883C18.1136 11.088 18.1136 10.9853 18.0957 10.885C18.1065 10.788 18.1065 10.6902 18.0957 10.5933C18.0957 10.3483 17.9674 10.15 17.9091 9.8933C17.9091 9.79119 17.8685 9.69327 17.7963 9.62106C17.7241 9.54886 17.6262 9.5083 17.5241 9.5083C17.422 9.5083 17.324 9.54886 17.2518 9.62106C17.1796 9.69327 17.1391 9.79119 17.1391 9.8933C17.0414 10.1299 16.9557 10.3713 16.8824 10.6166C16.8709 10.7213 16.8709 10.8269 16.8824 10.9316C16.8645 11.032 16.8645 11.1346 16.8824 11.235C16.8824 11.3166 16.8824 11.3983 16.9641 11.4683C16.6884 11.5261 16.4216 11.6203 16.1707 11.7483C15.7769 11.9331 15.4723 12.2664 15.3236 12.6753C15.1749 13.0842 15.1943 13.5353 15.3774 13.93C15.4638 14.1639 15.6038 14.3744 15.7861 14.5446C15.9684 14.7147 16.1881 14.8399 16.4274 14.91C17.1093 15.0563 17.8077 15.1112 18.5041 15.0733C18.9124 15.0733 19.3091 15.0733 19.4141 15.47C19.5191 15.8666 19.1457 16.2166 18.6557 16.4383Z"
        fill="white" />
</svg>