<svg width="28" height="28" viewBox="0 0 28 28" fill="none" xmlns="http://www.w3.org/2000/svg">
    <path fill-rule="evenodd" clip-rule="evenodd"
        d="M25.4602 15.3182C25.23 14.6371 24.8477 14.0174 24.3423 13.506C23.837 12.9946 23.2219 12.6049 22.5436 12.3666C21.9233 12.1453 21.2633 12.0578 20.6069 12.1099C20.6069 12.0166 20.5252 5.24988 20.0819 4.36322C19.9959 4.15975 19.8618 3.98021 19.6911 3.83999C19.5204 3.69978 19.3182 3.60309 19.1019 3.55822C14.6686 2.61322 12.7202 3.48822 9.92023 3.96655C8.57856 4.18822 6.7119 4.51488 6.6419 5.83322C6.78964 6.99449 6.87531 8.16282 6.89856 9.33322C6.73065 13.3624 6.79298 17.3978 7.08523 21.4199C7.03385 22.6336 7.29921 23.8398 7.85523 24.9199C8.59023 25.9116 10.1302 25.5499 11.2386 25.4799L14.5986 25.2582C14.7069 25.2582 14.8107 25.2152 14.8873 25.1386C14.9639 25.062 15.0069 24.9582 15.0069 24.8499C15.0069 24.7416 14.9639 24.6377 14.8873 24.5611C14.8107 24.4846 14.7069 24.4416 14.5986 24.4416L12.2652 24.4999C12.3469 22.2482 10.9936 21.5716 8.94023 20.5099C8.85856 20.5099 8.52023 20.2066 8.40356 20.2766C8.35904 20.2306 8.3024 20.1983 8.24023 20.1832C8.1119 16.6132 8.24023 12.7399 8.24023 9.88155C8.24023 9.25155 9.94356 9.62488 11.3202 7.08155C11.789 6.31765 11.9748 5.41342 11.8452 4.52655C13.0022 4.1066 14.2338 3.93179 15.4619 4.01322C15.6316 5.14704 16.1168 6.21028 16.8619 7.08155C17.5129 7.68435 18.3224 8.08905 19.1952 8.24822V9.07655C19.1952 9.36822 19.7669 11.3049 19.8719 12.5066C19.0552 13.6149 20.1752 16.7299 19.8719 19.5065C18.9385 18.3345 17.7385 17.4025 16.3719 16.7882C14.8319 16.4032 13.2569 17.6516 14.5402 19.8216C15.718 21.3998 16.9921 22.9037 18.3552 24.3249C18.7519 24.8032 18.7869 24.9315 18.7286 26.1099C18.7448 26.5293 18.6856 26.9482 18.5536 27.3466C18.501 27.427 18.4825 27.525 18.5022 27.6191C18.5219 27.7132 18.5781 27.7956 18.6586 27.8482C18.739 27.9008 18.8371 27.9193 18.9311 27.8996C19.0252 27.8799 19.1076 27.8237 19.1602 27.7432C19.517 26.7012 19.6132 25.5876 19.4402 24.4999C19.1252 23.3332 14.3302 18.8882 15.2636 18.0249C16.1969 17.1616 18.5069 19.8799 19.5102 20.9882C19.7601 21.1823 20.0688 21.2852 20.3852 21.2799C22.2286 20.9999 20.6769 14.7116 20.9919 13.3932C21.8507 13.3887 22.6811 13.7002 23.3252 14.2682C24.1399 15.1936 24.6989 16.3156 24.9469 17.5232C25.3367 18.9434 25.3727 20.4375 25.0519 21.8749C24.9236 22.4466 23.7919 23.9866 23.8852 24.5932C23.9367 25.6346 24.0812 26.6692 24.3169 27.6849C24.354 27.787 24.4302 27.8702 24.5287 27.9161C24.6271 27.9621 24.7398 27.967 24.8419 27.9299C24.944 27.8928 25.0272 27.8166 25.0731 27.7181C25.1191 27.6197 25.124 27.507 25.0869 27.4049C24.924 26.4451 24.8421 25.4734 24.8419 24.4999C24.9236 24.4999 24.9236 24.2666 25.0169 24.0916C25.2269 23.6832 25.5536 23.1466 25.7752 22.7382C26.8252 20.8599 26.3119 17.1616 25.4602 15.3182ZM9.32523 22.1666C10.7252 23.3332 11.1102 23.3332 11.3669 24.4999H11.2036C10.6202 24.4999 9.0569 24.7565 8.71856 24.2666C8.33674 23.2672 8.18907 22.1936 8.2869 21.1282L9.32523 22.1666ZM10.4919 6.07822C9.99488 6.73357 9.45715 7.35702 8.8819 7.94488C7.9719 9.01822 8.22856 8.52822 8.12356 7.44322C7.9019 5.49488 7.87856 5.68155 8.52023 5.42488C9.3456 5.14802 10.1872 4.92204 11.0402 4.74822C10.9597 5.22712 10.7723 5.68172 10.4919 6.07822ZM17.9586 6.22988C17.8186 6.08988 15.4969 3.77988 16.5586 4.04822C17.32 4.32664 18.0996 4.55272 18.8919 4.72488C19.049 5.51185 19.1117 6.31474 19.0786 7.11655C18.6689 6.87515 18.2957 6.57659 17.9702 6.22988H17.9586Z"
        fill="white" />
    <path fill-rule="evenodd" clip-rule="evenodd"
        d="M27.9919 4.76C27.9919 3.92 27.9919 1.26 27.3152 0.758333C26.6386 0.256667 23.0219 0 18.9036 0C14.4002 0 9.2319 0.233333 6.70023 0.513333C5.31837 0.710647 3.94765 0.979339 2.59356 1.31833C1.99857 1.45833 1.13523 1.31833 0.528565 1.96C-0.0781014 2.60167 0.0735652 3.90833 0.0852319 4.76C0.0852319 5.39 -0.194768 7.315 0.260232 7.79333C0.776654 8.17161 1.4055 8.36479 2.04523 8.34167C3.29647 8.58046 4.58369 8.55663 5.82523 8.27167C5.91806 8.24691 5.99725 8.1863 6.04538 8.10316C6.09352 8.02002 6.10665 7.92116 6.0819 7.82833C6.05714 7.73551 5.99653 7.65632 5.91339 7.60818C5.83025 7.56005 5.73139 7.54691 5.63857 7.57167C4.05823 7.81515 2.44264 7.67919 0.925232 7.175C1.33357 1.49333 0.808565 2.87 2.85023 2.50833C6.0819 1.86667 6.84023 1.70333 13.8636 1.48167C15.2636 1.48167 25.3086 1.13167 26.5802 1.69167C26.8123 2.7096 26.9259 3.75097 26.9186 4.795C26.9186 4.92333 26.7086 5.81 26.9186 5.96167C26.6152 6.03167 25.8452 5.96167 25.5302 6.06667C24.4507 6.21151 23.3641 6.29719 22.2752 6.32333C22.1669 6.32333 22.0631 6.36635 21.9865 6.44293C21.9099 6.51951 21.8669 6.62337 21.8669 6.73167C21.8669 6.83996 21.9099 6.94382 21.9865 7.0204C22.0631 7.09698 22.1669 7.14 22.2752 7.14C23.4048 7.15961 24.5345 7.11286 25.6586 7C26.0436 7 26.5919 7 27.0236 6.94167C28.3186 6.72 27.9219 5.83333 27.9919 4.76Z"
        fill="white" />
    <path fill-rule="evenodd" clip-rule="evenodd"
        d="M12.3119 12.3784C12.4187 12.3552 12.5118 12.2905 12.5709 12.1986C12.63 12.1067 12.6501 11.9951 12.6269 11.8884C12.6037 11.7816 12.539 11.6885 12.4471 11.6294C12.3552 11.5703 12.2437 11.5502 12.1369 11.5734C11.5069 11.6784 11.0636 12.0984 10.9702 13.0317C10.5619 12.8334 9.4769 13.2534 9.48857 13.6967C9.50024 14.1401 10.5852 14.5017 11.0636 14.1634C11.1728 14.682 11.3916 15.1712 11.7052 15.5984C11.8832 15.8043 12.1276 15.9415 12.396 15.9862C12.6645 16.0309 12.9401 15.9804 13.1752 15.8434C14.2602 15.2601 14.3419 13.3001 14.9019 12.8217C15.1819 12.5651 15.3102 12.4601 15.6252 12.8217C16.2086 13.5334 16.0569 14.2567 15.9169 14.3034C15.8253 14.333 15.7486 14.3969 15.703 14.4817C15.6573 14.5664 15.6462 14.6656 15.6719 14.7584C15.8236 15.2601 16.7336 15.0501 16.8386 13.8951C17.122 13.9908 17.4315 13.974 17.7029 13.848C17.9743 13.7221 18.187 13.4967 18.2969 13.2184C18.2215 13.0894 18.1197 12.9777 17.9981 12.8907C17.8766 12.8038 17.738 12.7434 17.5916 12.7137C17.4451 12.684 17.294 12.6855 17.1481 12.7182C17.0023 12.7509 16.865 12.814 16.7452 12.9034C16.3252 11.5151 15.2752 11.1184 14.5636 11.4217C14.3781 11.5219 14.2024 11.6391 14.0386 11.7717C13.1402 12.4251 13.1519 13.5684 12.7086 14.3034C12.2652 15.0384 12.6386 14.9217 12.3119 14.3617C11.9852 13.8017 11.6586 12.5651 12.3119 12.3784Z"
        fill="white" />
</svg>