<svg width="26" height="27" viewBox="0 0 26 27" fill="none" xmlns="http://www.w3.org/2000/svg">
    <path fill-rule="evenodd" clip-rule="evenodd"
        d="M21.962 21.6876C21.8501 21.6933 21.7448 21.7425 21.6687 21.8248C21.5926 21.9071 21.5517 22.0159 21.5547 22.1279C21.5547 22.6674 21.7859 23.394 21.8409 24.0656C21.8718 24.3051 21.8376 24.5485 21.7419 24.7702C21.6428 24.627 21.2354 24.7702 21.0923 24.7151L18.1859 24.561C16.718 24.4939 15.2474 24.516 13.7822 24.627C11.6111 24.8341 9.45603 25.1835 7.33077 25.6729C7.28282 25.6796 7.2367 25.6958 7.19511 25.7206C7.15352 25.7454 7.1173 25.7782 7.08859 25.8172C7.05987 25.8562 7.03923 25.9005 7.02788 25.9476C7.01653 25.9946 7.01471 26.0435 7.02251 26.0913C7.02715 26.1478 7.04495 26.2024 7.0745 26.2508C7.10404 26.2993 7.14451 26.3401 7.19266 26.37C7.24082 26.4 7.29531 26.4183 7.35179 26.4234C7.40827 26.4285 7.46517 26.4203 7.51792 26.3995C8.93812 26.2344 10.3693 26.1243 11.7895 26.0472C12.8904 25.9922 13.9253 25.9812 14.9932 25.9592C16.0611 25.9371 17.107 25.9041 18.1749 25.9592H21.1033C21.4281 26.0079 21.7583 26.0079 22.0831 25.9592C22.2667 25.9158 22.4299 25.8109 22.5455 25.6619C22.8014 25.3 22.9222 24.8597 22.8868 24.4179C22.8868 23.6582 22.4685 22.8215 22.4354 22.216C22.4522 22.1481 22.4521 22.0772 22.4352 22.0093C22.4183 21.9415 22.385 21.8788 22.3384 21.8267C22.2917 21.7746 22.233 21.7347 22.1675 21.7105C22.1019 21.6862 22.0314 21.6784 21.962 21.6876Z"
        fill="white" />
    <path fill-rule="evenodd" clip-rule="evenodd"
        d="M24.9676 5.66904C25.0446 5.50391 25.1437 5.34978 25.2098 5.18464C25.5481 4.40419 25.7062 3.55751 25.6722 2.70756C25.6437 2.24436 25.5135 1.79313 25.2908 1.38594C25.0682 0.978752 24.7586 0.6256 24.3841 0.35159C23.9493 0.0711273 23.4297 -0.0472809 22.9163 0.0171394C22.403 0.0815597 21.9287 0.324694 21.5767 0.703885C21.1702 1.08283 20.8183 1.51632 20.5309 1.99196C19.6473 3.53606 18.9735 5.19099 18.5272 6.91309C18.1088 8.32227 17.7786 9.75346 17.4813 11.1957L15.7418 11.9883C15.5675 12.0695 15.3984 12.1615 15.2354 12.2636C15.12 12.3502 15.0227 12.4587 14.9492 12.5828C14.8282 12.81 14.764 13.0631 14.762 13.3205C14.783 13.7508 14.8607 14.1765 14.9932 14.5865L15.3675 15.6874L15.7749 16.7884C15.7749 16.8654 15.896 17.1186 15.962 17.2177C16.0291 17.3216 16.1196 17.4083 16.2263 17.4709C16.3533 17.5436 16.4985 17.578 16.6446 17.57C16.8274 17.5344 17.0076 17.4866 17.1841 17.4269L18.3951 16.8654C18.7364 16.6673 19.2868 16.4691 19.7162 16.2159C19.9606 16.0817 20.1803 15.9067 20.3657 15.6984C20.4582 15.5828 20.5224 15.447 20.5529 15.3021C20.5645 15.0476 20.546 14.7926 20.4978 14.5425L20.3217 13.0893C20.8832 12.3076 21.4226 11.5039 21.9841 10.7003C22.5455 9.89658 23.085 9.07089 23.5584 8.2452C23.8667 7.74979 24.1969 7.14428 24.5272 6.61584C24.6964 7.03477 24.7385 7.49424 24.6483 7.93694C24.5469 8.37489 24.3955 8.7997 24.1969 9.203C23.8887 9.87457 23.5254 10.5902 23.1621 11.3278C23.1222 11.3728 23.0924 11.4259 23.0749 11.4835C23.0574 11.541 23.0525 11.6017 23.0606 11.6613C23.0686 11.7209 23.0895 11.7781 23.1216 11.8289C23.1538 11.8798 23.1965 11.9231 23.247 11.9559C23.2974 11.9887 23.3543 12.0103 23.4138 12.0191C23.4733 12.0279 23.534 12.0238 23.5918 12.007C23.6496 11.9902 23.7031 11.9612 23.7486 11.9219C23.7941 11.8826 23.8306 11.8339 23.8556 11.7792C24.3941 11.1455 24.8941 10.4801 25.3529 9.78649C25.6955 9.27101 25.9141 8.68316 25.9914 8.06905C26.0269 7.61611 25.9523 7.16131 25.774 6.74343C25.5957 6.32554 25.319 5.95694 24.9676 5.66904ZM19.3749 15.0159L19.1217 15.148C18.6593 15.3461 18.0978 15.4893 17.7345 15.6544L16.9308 15.9737L16.6006 15.137L16.1712 14.1572C16.071 13.9433 15.9864 13.7226 15.918 13.4966C15.918 13.3535 15.8189 13.2104 15.8629 13.1003L16.2152 12.825L17.9437 11.7241C18.0558 11.8748 18.1893 12.0084 18.34 12.1204C18.4954 12.224 18.6664 12.3021 18.8464 12.3516C19.0408 12.4113 19.2396 12.4555 19.4409 12.4838C19.4246 12.5525 19.4246 12.6242 19.4409 12.6929V14.5425C19.4189 14.6746 19.3198 14.9168 19.3749 15.0159ZM22.5566 7.61768C22.1052 8.46539 21.6208 9.30209 21.1364 10.1278L20.0354 11.8452C19.8592 11.6266 19.6679 11.4206 19.463 11.2287C19.3682 11.1564 19.2689 11.0902 19.1657 11.0305C19.0643 10.9753 18.9573 10.931 18.8464 10.8984C18.6483 10.8984 18.4611 10.8434 18.285 10.8214C18.5492 9.85255 18.8244 8.87273 19.1547 7.92593C19.3859 7.26538 19.6942 6.62685 19.9804 5.9773V6.05437C20.1097 6.17024 20.2498 6.27346 20.3988 6.36262C20.5718 6.45979 20.7569 6.53382 20.9492 6.58281C21.3368 6.74168 21.7386 6.86333 22.1492 6.94611C22.1999 6.97506 22.256 6.99309 22.3141 6.99904C22.3721 7.00499 22.4308 6.99874 22.4863 6.98067C22.5417 6.96261 22.5928 6.93314 22.6363 6.89416C22.6797 6.85518 22.7145 6.80754 22.7384 6.75432C22.7623 6.70109 22.7748 6.64346 22.7751 6.58511C22.7754 6.52676 22.7635 6.46899 22.7402 6.41551C22.7168 6.36204 22.6826 6.31403 22.6396 6.27459C22.5966 6.23514 22.5458 6.20513 22.4905 6.18648C22.1712 5.95528 21.918 5.68005 21.6098 5.43785C21.4066 5.27744 21.1933 5.13034 20.9712 4.99748C20.8173 4.92562 20.6593 4.86312 20.4978 4.81032C20.5262 4.73133 20.5593 4.65413 20.5969 4.57913C20.9214 3.93476 21.2892 3.31315 21.6978 2.71857C21.945 2.35306 22.2332 2.01694 22.5566 1.71673C22.6861 1.55762 22.8684 1.45015 23.0703 1.4138C23.2723 1.37745 23.4806 1.41462 23.6575 1.51857C23.8576 1.67286 24.0214 1.86914 24.1374 2.09359C24.2535 2.31804 24.3189 2.56519 24.329 2.81766C24.3702 3.46302 24.2687 4.10953 24.0318 4.71124C23.6138 5.71575 23.1207 6.68732 22.5566 7.61768Z"
        fill="white" />
    <path fill-rule="evenodd" clip-rule="evenodd"
        d="M22.3804 17.7461C22.3528 17.5455 22.3123 17.347 22.2593 17.1516C22.1382 16.6782 21.951 16.2599 21.8299 15.7975C21.8392 15.7437 21.8367 15.6885 21.8224 15.6359C21.8082 15.5832 21.7826 15.5343 21.7475 15.4925C21.7124 15.4507 21.6685 15.4172 21.619 15.3942C21.5696 15.3711 21.5157 15.3592 21.4611 15.3592C21.4065 15.3592 21.3526 15.3711 21.3031 15.3942C21.2537 15.4172 21.2098 15.4507 21.1747 15.4925C21.1396 15.5343 21.114 15.5832 21.0997 15.6359C21.0855 15.6885 21.083 15.7437 21.0923 15.7975C20.9974 16.2876 20.9422 16.7847 20.9271 17.2837C20.9291 17.4904 20.9475 17.6965 20.9822 17.9002C21.0142 18.1091 21.062 18.3152 21.1253 18.5167C21.2354 18.9021 21.3895 19.2764 21.5327 19.6177H21.4116C19.2097 20.3333 16.9528 20.9498 14.6959 21.5002C12.439 22.0507 10.1491 22.5021 7.85919 22.8874C6.85735 23.0746 5.65734 23.4599 4.49037 23.6801C3.93445 23.8057 3.3644 23.8576 2.79494 23.8342C2.60779 23.1736 2.37659 21.9516 2.35458 21.8415C2.00228 20.3993 1.68301 18.9351 1.41879 17.4378C1.15457 15.9406 0.98943 14.8617 0.835301 13.5186C1.82268 13.1448 2.82968 12.825 3.85183 12.5608C4.8867 12.2855 5.93258 12.0653 6.98946 11.8452L10.1491 11.1736C12.2959 10.7002 14.4097 10.1497 16.4794 9.54423C16.5293 9.53411 16.5767 9.51427 16.6189 9.48583C16.6611 9.45739 16.6973 9.42092 16.7254 9.37849C16.7535 9.33607 16.773 9.28852 16.7828 9.23856C16.7925 9.18861 16.7923 9.13723 16.7822 9.08735C16.7721 9.03747 16.7522 8.99007 16.7238 8.94786C16.6953 8.90566 16.6589 8.86946 16.6164 8.84135C16.574 8.81324 16.5265 8.79375 16.4765 8.78402C16.4265 8.77428 16.3752 8.77447 16.3253 8.78459C14.4207 9.12588 12.4721 9.33506 10.5344 9.65432C9.24635 9.88552 7.95827 10.1387 6.6812 10.469C4.54311 10.9937 2.46298 11.7313 0.471997 12.6708C0.403203 12.6493 0.329548 12.6487 0.260405 12.6691C0.191262 12.6895 0.129758 12.73 0.0837196 12.7855C0.0376815 12.841 0.00919154 12.9089 0.00187563 12.9806C-0.00544028 13.0524 0.00874866 13.1246 0.0426367 13.1883C0.119701 14.6855 0.262821 16.1938 0.449978 17.6911C0.637135 19.1883 0.868329 20.6856 1.13255 22.1608C1.13255 22.2929 1.37475 23.9223 1.56191 24.5278C1.60213 24.6897 1.6844 24.838 1.8004 24.9579C1.91639 25.0778 2.06199 25.1648 2.22246 25.2104C2.86083 25.3097 3.51072 25.3097 4.14908 25.2104C5.50322 25.0342 6.94542 24.5388 8.1124 24.3296C10.4243 23.8452 12.7143 23.2947 14.9822 22.6562C17.2501 22.0177 19.4849 21.2801 21.6868 20.4544C21.742 20.4304 21.7919 20.3957 21.8335 20.3522C21.8751 20.3087 21.9075 20.2574 21.929 20.2012C21.9904 20.2165 22.0547 20.2165 22.1161 20.2012C22.2246 20.1773 22.3195 20.1124 22.3811 20.02C22.4427 19.9276 22.4661 19.815 22.4464 19.7057V18.2635C22.4134 18.1424 22.4024 17.9333 22.3804 17.7461Z"
        fill="white" />
    <path fill-rule="evenodd" clip-rule="evenodd"
        d="M4.56037 20.8736C4.64618 21.0578 4.74382 21.2363 4.85267 21.4079C4.96205 21.5291 5.11067 21.6078 5.27237 21.6302C5.39784 21.6443 5.52456 21.6182 5.63417 21.5556C5.74379 21.4929 5.83061 21.397 5.88205 21.2816C6.22827 20.7325 6.44046 20.1095 6.50148 19.4632C6.65404 18.1697 6.40665 16.6825 6.50218 15.5087C6.50092 15.4631 6.49055 15.4182 6.47168 15.3768C6.45281 15.3353 6.42582 15.298 6.3923 15.2671C6.35878 15.2362 6.31941 15.2123 6.27652 15.1969C6.23363 15.1815 6.18808 15.1748 6.14257 15.1773C6.096 15.1722 6.04889 15.1765 6.00399 15.1898C5.9591 15.2032 5.91731 15.2254 5.88109 15.2551C5.84487 15.2848 5.81494 15.3214 5.79304 15.3628C5.77115 15.4042 5.75773 15.4496 5.75357 15.4963C5.59985 16.4692 5.62094 17.6895 5.48143 18.8302C5.438 19.1626 5.37251 19.4917 5.28541 19.8154L4.85061 19.1849C4.49645 18.7217 4.16902 18.2387 3.86994 17.7382C3.56261 17.2312 3.29927 16.7574 3.01893 16.1852C3.00348 16.1464 2.98029 16.1111 2.95076 16.0814C2.92123 16.0518 2.88598 16.0285 2.84716 16.013C2.80834 15.9974 2.76676 15.9899 2.72495 15.9909C2.68314 15.9919 2.64198 16.0015 2.60396 16.0189C2.56614 16.0341 2.53171 16.0567 2.50268 16.0854C2.47365 16.114 2.45058 16.1481 2.43483 16.1857C2.41907 16.2233 2.41093 16.2637 2.41089 16.3045C2.41084 16.3452 2.41889 16.3856 2.43456 16.4233C2.60609 17.0155 2.85915 17.5725 3.10164 18.1327C3.33929 18.6995 3.60683 19.2533 3.90313 19.7917L4.56037 20.8736Z"
        fill="#262C41" />
    <path fill-rule="evenodd" clip-rule="evenodd"
        d="M8.32903 20.1447C8.31564 19.5852 8.3143 19.0321 8.32264 18.4763L8.49697 18.4302L8.71971 18.3712C8.79411 18.3427 8.86431 18.3048 8.9283 18.2588C9.08846 18.1516 9.24102 18.0347 9.38493 17.9088C9.43548 17.885 9.47897 17.8495 9.51105 17.8058C9.54314 17.7622 9.5627 17.7119 9.56778 17.66C9.78503 18.0892 9.9685 18.5083 10.1808 18.9579C10.1932 18.9953 10.2138 19.0296 10.2414 19.0586C10.269 19.0876 10.303 19.1108 10.3412 19.1267C10.3795 19.1425 10.4212 19.1507 10.4637 19.1507C10.5062 19.1508 10.5486 19.1426 10.5882 19.1268C10.669 19.0958 10.7348 19.037 10.7714 18.9631C10.808 18.8891 10.8126 18.8059 10.7841 18.7314C10.6212 18.116 10.4051 17.4956 10.1527 16.8944C9.98339 16.4707 9.76212 16.0683 9.49317 15.6948C9.27518 15.3785 8.99215 15.1068 8.65949 14.8943C8.44105 14.7705 8.18357 14.7151 7.92327 14.7361C7.78515 14.767 7.65955 14.838 7.56493 14.9387C7.47031 15.0393 7.41167 15.1643 7.39764 15.2951C7.3616 15.6334 7.34413 15.9725 7.3453 16.311C7.34924 16.8349 7.37256 17.3536 7.42492 17.8646C7.50465 18.6356 7.62076 19.3874 7.75128 20.1545C7.75301 20.1892 7.76224 20.2229 7.77841 20.2537C7.79458 20.2844 7.81737 20.3116 7.84541 20.3336C7.87346 20.3555 7.90619 20.3718 7.94167 20.3815C7.97715 20.3911 8.01464 20.394 8.05193 20.3899C8.12055 20.3851 8.18611 20.3579 8.23688 20.3129C8.28765 20.268 8.32031 20.2084 8.32903 20.1447ZM8.42545 16.3591L8.3381 16.0292C8.45062 16.1239 8.55425 16.2273 8.64795 16.3384C8.91861 16.639 9.15161 16.9677 9.34273 17.3188C9.34273 17.3188 9.36397 17.399 9.37342 17.4347C9.33435 17.414 9.29045 17.4017 9.2449 17.3989C9.19936 17.3961 9.15329 17.4028 9.11005 17.4185C8.92604 17.4673 8.74748 17.4191 8.55639 17.441C8.48014 17.4519 8.4053 17.4718 8.33364 17.5C8.38448 17.1048 8.39162 16.7403 8.42545 16.3591Z"
        fill="#262C41" />
    <path fill-rule="evenodd" clip-rule="evenodd"
        d="M12.9984 18.5828C13.0365 18.5689 13.0717 18.5478 13.1017 18.5208C13.1317 18.4939 13.1559 18.4616 13.1728 18.4261C13.1897 18.3905 13.199 18.3525 13.2 18.3143C13.201 18.2761 13.1938 18.2386 13.1787 18.204C13.0497 17.7067 12.9887 17.1969 12.8856 16.6873C12.8236 16.3543 12.7577 16.0132 12.666 15.6844C12.4992 15.1069 12.2622 14.5822 12.0485 14.0171C12.0313 13.9528 11.9891 13.8984 11.9302 13.8646C11.8712 13.8308 11.7998 13.82 11.7301 13.8343C11.695 13.8438 11.6618 13.8596 11.6325 13.8809C11.6031 13.9023 11.5781 13.9287 11.5589 13.9586C11.5397 13.9886 11.5267 14.0216 11.5206 14.0556C11.5145 14.0897 11.5154 14.1241 11.5233 14.1571C11.5633 14.667 11.5649 15.1853 11.6297 15.7031C11.6599 15.9239 11.7074 16.1365 11.7587 16.3571C11.8089 16.5727 11.8735 16.7842 11.9519 16.9906C12.14 17.479 12.3635 17.9527 12.6206 18.4085C12.6317 18.4445 12.6503 18.4776 12.6753 18.5059C12.7004 18.5342 12.7314 18.5571 12.7666 18.5733C12.8017 18.5896 12.8403 18.5987 12.8801 18.6004C12.9199 18.602 12.9602 18.596 12.9984 18.5828Z"
        fill="#262C41" />
    <path fill-rule="evenodd" clip-rule="evenodd"
        d="M9.81956 14.7909C9.83047 14.8158 9.84702 14.8378 9.86818 14.8555C9.88933 14.8732 9.91464 14.8862 9.94254 14.8937C9.97044 14.9012 10.0003 14.903 10.0303 14.899C10.0603 14.895 10.0898 14.8854 10.117 14.8706C10.5078 14.7194 10.9083 14.6143 11.3087 14.4797C11.5704 14.3955 11.8384 14.3077 12.0968 14.2032C12.5506 14.0158 12.9631 13.7857 13.4072 13.5669C13.4577 13.547 13.5005 13.5108 13.5271 13.4654C13.5537 13.42 13.5623 13.3688 13.5511 13.3217C13.5437 13.2983 13.5313 13.2771 13.5145 13.2591C13.4978 13.2412 13.4771 13.2269 13.4536 13.2172C13.43 13.2074 13.4042 13.2023 13.3774 13.2022C13.3507 13.2021 13.3236 13.207 13.2977 13.2166C12.8971 13.307 12.49 13.3716 12.0831 13.4804C11.9097 13.5286 11.7426 13.5878 11.5692 13.6507C11.3998 13.7123 11.2335 13.7834 11.0714 13.8635C10.6875 14.055 10.3152 14.2694 9.95688 14.5051C9.9286 14.5173 9.90258 14.5344 9.88032 14.5554C9.85807 14.5764 9.84002 14.6009 9.82724 14.6275C9.81447 14.654 9.80721 14.6822 9.80589 14.7102C9.80457 14.7383 9.80922 14.7657 9.81956 14.7909Z"
        fill="#262C41" />
</svg>